<mxfile host="app.diagrams.net" agent="Mozilla/5.0 (Windows NT 10.0; Win64; x64) AppleWebKit/537.36 (KHTML, like Gecko) Chrome/130.0.0.0 Safari/537.36" version="24.7.17">
  <diagram name="Page-1" id="hXGrlZ-hWBZjOhwNVZ7G">
    <mxGraphModel dx="426" dy="445" grid="1" gridSize="10" guides="1" tooltips="1" connect="1" arrows="1" fold="1" page="1" pageScale="1" pageWidth="827" pageHeight="1169" math="0" shadow="0">
      <root>
        <mxCell id="0" />
        <mxCell id="1" parent="0" />
        <mxCell id="BDpeUFrxrpk7QIUAc2P_-2" style="edgeStyle=orthogonalEdgeStyle;rounded=0;orthogonalLoop=1;jettySize=auto;html=1;exitX=0;exitY=0;exitDx=0;exitDy=0;endArrow=oval;endFill=1;" edge="1" parent="1" source="BDpeUFrxrpk7QIUAc2P_-1">
          <mxGeometry relative="1" as="geometry">
            <mxPoint x="160" y="120" as="targetPoint" />
          </mxGeometry>
        </mxCell>
        <mxCell id="BDpeUFrxrpk7QIUAc2P_-4" style="edgeStyle=orthogonalEdgeStyle;rounded=0;orthogonalLoop=1;jettySize=auto;html=1;exitX=0.25;exitY=0;exitDx=0;exitDy=0;endArrow=oval;endFill=0;" edge="1" parent="1" source="BDpeUFrxrpk7QIUAc2P_-1">
          <mxGeometry relative="1" as="geometry">
            <mxPoint x="170" y="130" as="targetPoint" />
            <Array as="points">
              <mxPoint x="170" y="250" />
            </Array>
          </mxGeometry>
        </mxCell>
        <mxCell id="BDpeUFrxrpk7QIUAc2P_-1" value="Jugadores" style="rounded=0;whiteSpace=wrap;html=1;" vertex="1" parent="1">
          <mxGeometry x="160" y="250" width="120" height="60" as="geometry" />
        </mxCell>
        <mxCell id="BDpeUFrxrpk7QIUAc2P_-3" value="ID" style="text;html=1;align=center;verticalAlign=middle;resizable=0;points=[];autosize=1;strokeColor=none;fillColor=none;" vertex="1" parent="1">
          <mxGeometry x="140" y="95" width="40" height="30" as="geometry" />
        </mxCell>
        <mxCell id="BDpeUFrxrpk7QIUAc2P_-5" style="edgeStyle=orthogonalEdgeStyle;rounded=0;orthogonalLoop=1;jettySize=auto;html=1;exitX=0.25;exitY=0;exitDx=0;exitDy=0;endArrow=oval;endFill=0;" edge="1" parent="1">
          <mxGeometry relative="1" as="geometry">
            <mxPoint x="180" y="140" as="targetPoint" />
            <mxPoint x="200" y="250" as="sourcePoint" />
            <Array as="points">
              <mxPoint x="180" y="250" />
            </Array>
          </mxGeometry>
        </mxCell>
        <mxCell id="BDpeUFrxrpk7QIUAc2P_-6" style="edgeStyle=orthogonalEdgeStyle;rounded=0;orthogonalLoop=1;jettySize=auto;html=1;endArrow=oval;endFill=0;" edge="1" parent="1">
          <mxGeometry relative="1" as="geometry">
            <mxPoint x="190" y="150" as="targetPoint" />
            <mxPoint x="190" y="250" as="sourcePoint" />
            <Array as="points">
              <mxPoint x="210" y="250" />
              <mxPoint x="190" y="250" />
            </Array>
          </mxGeometry>
        </mxCell>
        <mxCell id="BDpeUFrxrpk7QIUAc2P_-7" style="edgeStyle=orthogonalEdgeStyle;rounded=0;orthogonalLoop=1;jettySize=auto;html=1;exitX=0.5;exitY=0;exitDx=0;exitDy=0;endArrow=oval;endFill=0;" edge="1" parent="1" source="BDpeUFrxrpk7QIUAc2P_-1">
          <mxGeometry relative="1" as="geometry">
            <mxPoint x="200" y="160" as="targetPoint" />
            <mxPoint x="220" y="280" as="sourcePoint" />
            <Array as="points">
              <mxPoint x="200" y="250" />
            </Array>
          </mxGeometry>
        </mxCell>
        <mxCell id="BDpeUFrxrpk7QIUAc2P_-8" style="edgeStyle=orthogonalEdgeStyle;rounded=0;orthogonalLoop=1;jettySize=auto;html=1;endArrow=oval;endFill=0;" edge="1" parent="1">
          <mxGeometry relative="1" as="geometry">
            <mxPoint x="210" y="170" as="targetPoint" />
            <mxPoint x="230" y="250" as="sourcePoint" />
            <Array as="points">
              <mxPoint x="230" y="250" />
              <mxPoint x="210" y="250" />
            </Array>
          </mxGeometry>
        </mxCell>
        <mxCell id="BDpeUFrxrpk7QIUAc2P_-9" value="Nombre_de_Usuario" style="text;html=1;align=center;verticalAlign=middle;resizable=0;points=[];autosize=1;strokeColor=none;fillColor=none;fontSize=8;" vertex="1" parent="1">
          <mxGeometry x="163" y="118" width="100" height="20" as="geometry" />
        </mxCell>
        <mxCell id="BDpeUFrxrpk7QIUAc2P_-10" value="Fecha nacimiento" style="text;html=1;align=center;verticalAlign=middle;resizable=0;points=[];autosize=1;strokeColor=none;fillColor=none;fontSize=8;" vertex="1" parent="1">
          <mxGeometry x="172" y="127" width="90" height="20" as="geometry" />
        </mxCell>
        <mxCell id="BDpeUFrxrpk7QIUAc2P_-11" value="ContraseÃ±a" style="text;html=1;align=center;verticalAlign=middle;resizable=0;points=[];autosize=1;strokeColor=none;fillColor=none;fontSize=8;" vertex="1" parent="1">
          <mxGeometry x="208" y="159" width="60" height="20" as="geometry" />
        </mxCell>
        <mxCell id="BDpeUFrxrpk7QIUAc2P_-12" value="Email" style="text;html=1;align=center;verticalAlign=middle;resizable=0;points=[];autosize=1;strokeColor=none;fillColor=none;fontSize=8;" vertex="1" parent="1">
          <mxGeometry x="217" y="170" width="40" height="20" as="geometry" />
        </mxCell>
        <mxCell id="BDpeUFrxrpk7QIUAc2P_-13" value="Fecha_hora_registro&lt;div&gt;&lt;span style=&quot;color: rgba(0, 0, 0, 0); font-family: monospace; font-size: 0px; text-align: start;&quot;&gt;%3CmxGraphModel%3E%3Croot%3E%3CmxCell%20id%3D%220%22%2F%3E%3CmxCell%20id%3D%221%22%20parent%3D%220%22%2F%3E%3CmxCell%20id%3D%222%22%20value%3D%22Fecha%20nacimiento%22%20style%3D%22text%3Bhtml%3D1%3Balign%3Dcenter%3BverticalAlign%3Dmiddle%3Bresizable%3D0%3Bpoints%3D%5B%5D%3Bautosize%3D1%3BstrokeColor%3Dnone%3BfillColor%3Dnone%3BfontSize%3D8%3B%22%20vertex%3D%221%22%20parent%3D%221%22%3E%3CmxGeometry%20x%3D%22175%22%20y%3D%22125%22%20width%3D%2290%22%20height%3D%2220%22%20as%3D%22geometry%22%2F%3E%3C%2FmxCell%3E%3C%2Froot%3E%3C%2FmxGraphModel%3&lt;/span&gt;&lt;/div&gt;" style="text;html=1;align=center;verticalAlign=middle;resizable=0;points=[];autosize=1;strokeColor=none;fillColor=none;fontSize=8;" vertex="1" parent="1">
          <mxGeometry x="194" y="149" width="100" height="30" as="geometry" />
        </mxCell>
        <mxCell id="BDpeUFrxrpk7QIUAc2P_-14" value="Fecha_hora_ultimo_acceso" style="text;html=1;align=center;verticalAlign=middle;resizable=0;points=[];autosize=1;strokeColor=none;fillColor=none;fontSize=8;" vertex="1" parent="1">
          <mxGeometry x="185" y="138" width="120" height="20" as="geometry" />
        </mxCell>
        <mxCell id="BDpeUFrxrpk7QIUAc2P_-15" style="edgeStyle=orthogonalEdgeStyle;rounded=0;orthogonalLoop=1;jettySize=auto;html=1;endArrow=oval;endFill=0;exitX=0.5;exitY=0;exitDx=0;exitDy=0;" edge="1" parent="1" source="BDpeUFrxrpk7QIUAc2P_-1">
          <mxGeometry relative="1" as="geometry">
            <mxPoint x="220" y="180" as="targetPoint" />
            <mxPoint x="240" y="260" as="sourcePoint" />
            <Array as="points">
              <mxPoint x="220" y="250" />
            </Array>
          </mxGeometry>
        </mxCell>
        <mxCell id="BDpeUFrxrpk7QIUAc2P_-16" style="edgeStyle=orthogonalEdgeStyle;rounded=0;orthogonalLoop=1;jettySize=auto;html=1;exitX=0;exitY=0;exitDx=0;exitDy=0;endArrow=oval;endFill=1;" edge="1" parent="1" source="BDpeUFrxrpk7QIUAc2P_-18">
          <mxGeometry relative="1" as="geometry">
            <mxPoint x="314" y="120" as="targetPoint" />
          </mxGeometry>
        </mxCell>
        <mxCell id="BDpeUFrxrpk7QIUAc2P_-17" style="edgeStyle=orthogonalEdgeStyle;rounded=0;orthogonalLoop=1;jettySize=auto;html=1;exitX=0.25;exitY=0;exitDx=0;exitDy=0;endArrow=oval;endFill=0;" edge="1" parent="1" source="BDpeUFrxrpk7QIUAc2P_-18">
          <mxGeometry relative="1" as="geometry">
            <mxPoint x="324" y="130" as="targetPoint" />
            <Array as="points">
              <mxPoint x="324" y="250" />
            </Array>
          </mxGeometry>
        </mxCell>
        <mxCell id="BDpeUFrxrpk7QIUAc2P_-18" value="Personajes" style="rounded=0;whiteSpace=wrap;html=1;" vertex="1" parent="1">
          <mxGeometry x="314" y="250" width="120" height="60" as="geometry" />
        </mxCell>
        <mxCell id="BDpeUFrxrpk7QIUAc2P_-19" value="ID" style="text;html=1;align=center;verticalAlign=middle;resizable=0;points=[];autosize=1;strokeColor=none;fillColor=none;" vertex="1" parent="1">
          <mxGeometry x="294" y="95" width="40" height="30" as="geometry" />
        </mxCell>
        <mxCell id="BDpeUFrxrpk7QIUAc2P_-20" style="edgeStyle=orthogonalEdgeStyle;rounded=0;orthogonalLoop=1;jettySize=auto;html=1;exitX=0.25;exitY=0;exitDx=0;exitDy=0;endArrow=oval;endFill=0;" edge="1" parent="1">
          <mxGeometry relative="1" as="geometry">
            <mxPoint x="334" y="140" as="targetPoint" />
            <mxPoint x="354" y="250" as="sourcePoint" />
            <Array as="points">
              <mxPoint x="334" y="250" />
            </Array>
          </mxGeometry>
        </mxCell>
        <mxCell id="BDpeUFrxrpk7QIUAc2P_-21" style="edgeStyle=orthogonalEdgeStyle;rounded=0;orthogonalLoop=1;jettySize=auto;html=1;endArrow=oval;endFill=0;" edge="1" parent="1">
          <mxGeometry relative="1" as="geometry">
            <mxPoint x="344" y="150" as="targetPoint" />
            <mxPoint x="344" y="250" as="sourcePoint" />
            <Array as="points">
              <mxPoint x="364" y="250" />
              <mxPoint x="344" y="250" />
            </Array>
          </mxGeometry>
        </mxCell>
        <mxCell id="BDpeUFrxrpk7QIUAc2P_-22" style="edgeStyle=orthogonalEdgeStyle;rounded=0;orthogonalLoop=1;jettySize=auto;html=1;exitX=0.5;exitY=0;exitDx=0;exitDy=0;endArrow=oval;endFill=0;" edge="1" parent="1" source="BDpeUFrxrpk7QIUAc2P_-18">
          <mxGeometry relative="1" as="geometry">
            <mxPoint x="354" y="160" as="targetPoint" />
            <mxPoint x="374" y="280" as="sourcePoint" />
            <Array as="points">
              <mxPoint x="354" y="250" />
            </Array>
          </mxGeometry>
        </mxCell>
        <mxCell id="BDpeUFrxrpk7QIUAc2P_-23" style="edgeStyle=orthogonalEdgeStyle;rounded=0;orthogonalLoop=1;jettySize=auto;html=1;endArrow=oval;endFill=0;" edge="1" parent="1">
          <mxGeometry relative="1" as="geometry">
            <mxPoint x="364" y="170" as="targetPoint" />
            <mxPoint x="384" y="250" as="sourcePoint" />
            <Array as="points">
              <mxPoint x="384" y="250" />
              <mxPoint x="364" y="250" />
            </Array>
          </mxGeometry>
        </mxCell>
        <mxCell id="BDpeUFrxrpk7QIUAc2P_-24" value="Nombre" style="text;html=1;align=center;verticalAlign=middle;resizable=0;points=[];autosize=1;strokeColor=none;fillColor=none;fontSize=8;" vertex="1" parent="1">
          <mxGeometry x="321" y="118" width="50" height="20" as="geometry" />
        </mxCell>
        <mxCell id="BDpeUFrxrpk7QIUAc2P_-25" value="Nivel" style="text;html=1;align=center;verticalAlign=middle;resizable=0;points=[];autosize=1;strokeColor=none;fillColor=none;fontSize=8;" vertex="1" parent="1">
          <mxGeometry x="330" y="129" width="40" height="20" as="geometry" />
        </mxCell>
        <mxCell id="BDpeUFrxrpk7QIUAc2P_-26" value="STATS" style="text;html=1;align=center;verticalAlign=middle;resizable=0;points=[];autosize=1;strokeColor=none;fillColor=none;fontSize=8;" vertex="1" parent="1">
          <mxGeometry x="371" y="169" width="50" height="20" as="geometry" />
        </mxCell>
        <mxCell id="BDpeUFrxrpk7QIUAc2P_-27" value="Raza&lt;div&gt;&lt;br&gt;&lt;/div&gt;" style="text;html=1;align=center;verticalAlign=middle;resizable=0;points=[];autosize=1;strokeColor=none;fillColor=none;fontSize=8;" vertex="1" parent="1">
          <mxGeometry x="364" y="159" width="40" height="30" as="geometry" />
        </mxCell>
        <mxCell id="BDpeUFrxrpk7QIUAc2P_-28" value="Clase" style="text;html=1;align=center;verticalAlign=middle;resizable=0;points=[];autosize=1;strokeColor=none;fillColor=none;fontSize=8;" vertex="1" parent="1">
          <mxGeometry x="354" y="149" width="40" height="20" as="geometry" />
        </mxCell>
        <mxCell id="BDpeUFrxrpk7QIUAc2P_-29" value="Experiencia" style="text;html=1;align=center;verticalAlign=middle;resizable=0;points=[];autosize=1;strokeColor=none;fillColor=none;fontSize=8;" vertex="1" parent="1">
          <mxGeometry x="339" y="138" width="70" height="20" as="geometry" />
        </mxCell>
        <mxCell id="BDpeUFrxrpk7QIUAc2P_-30" style="edgeStyle=orthogonalEdgeStyle;rounded=0;orthogonalLoop=1;jettySize=auto;html=1;endArrow=oval;endFill=0;exitX=0.5;exitY=0;exitDx=0;exitDy=0;" edge="1" parent="1" source="BDpeUFrxrpk7QIUAc2P_-18">
          <mxGeometry relative="1" as="geometry">
            <mxPoint x="374" y="180" as="targetPoint" />
            <mxPoint x="394" y="260" as="sourcePoint" />
            <Array as="points">
              <mxPoint x="374" y="250" />
            </Array>
          </mxGeometry>
        </mxCell>
        <mxCell id="BDpeUFrxrpk7QIUAc2P_-31" style="edgeStyle=orthogonalEdgeStyle;rounded=0;orthogonalLoop=1;jettySize=auto;html=1;exitX=0;exitY=0;exitDx=0;exitDy=0;endArrow=oval;endFill=1;" edge="1" parent="1" source="BDpeUFrxrpk7QIUAc2P_-33">
          <mxGeometry relative="1" as="geometry">
            <mxPoint x="460" y="120" as="targetPoint" />
          </mxGeometry>
        </mxCell>
        <mxCell id="BDpeUFrxrpk7QIUAc2P_-32" style="edgeStyle=orthogonalEdgeStyle;rounded=0;orthogonalLoop=1;jettySize=auto;html=1;exitX=0.25;exitY=0;exitDx=0;exitDy=0;endArrow=oval;endFill=0;" edge="1" parent="1" source="BDpeUFrxrpk7QIUAc2P_-33">
          <mxGeometry relative="1" as="geometry">
            <mxPoint x="470" y="130" as="targetPoint" />
            <Array as="points">
              <mxPoint x="470" y="250" />
            </Array>
          </mxGeometry>
        </mxCell>
        <mxCell id="BDpeUFrxrpk7QIUAc2P_-33" value="Objetos" style="rounded=0;whiteSpace=wrap;html=1;" vertex="1" parent="1">
          <mxGeometry x="460" y="250" width="120" height="60" as="geometry" />
        </mxCell>
        <mxCell id="BDpeUFrxrpk7QIUAc2P_-34" value="ID" style="text;html=1;align=center;verticalAlign=middle;resizable=0;points=[];autosize=1;strokeColor=none;fillColor=none;" vertex="1" parent="1">
          <mxGeometry x="440" y="95" width="40" height="30" as="geometry" />
        </mxCell>
        <mxCell id="BDpeUFrxrpk7QIUAc2P_-35" style="edgeStyle=orthogonalEdgeStyle;rounded=0;orthogonalLoop=1;jettySize=auto;html=1;exitX=0.25;exitY=0;exitDx=0;exitDy=0;endArrow=oval;endFill=0;" edge="1" parent="1">
          <mxGeometry relative="1" as="geometry">
            <mxPoint x="480" y="140" as="targetPoint" />
            <mxPoint x="500" y="250" as="sourcePoint" />
            <Array as="points">
              <mxPoint x="480" y="250" />
            </Array>
          </mxGeometry>
        </mxCell>
        <mxCell id="BDpeUFrxrpk7QIUAc2P_-36" style="edgeStyle=orthogonalEdgeStyle;rounded=0;orthogonalLoop=1;jettySize=auto;html=1;endArrow=oval;endFill=0;" edge="1" parent="1">
          <mxGeometry relative="1" as="geometry">
            <mxPoint x="490" y="150" as="targetPoint" />
            <mxPoint x="490" y="250" as="sourcePoint" />
            <Array as="points">
              <mxPoint x="510" y="250" />
              <mxPoint x="490" y="250" />
            </Array>
          </mxGeometry>
        </mxCell>
        <mxCell id="BDpeUFrxrpk7QIUAc2P_-37" style="edgeStyle=orthogonalEdgeStyle;rounded=0;orthogonalLoop=1;jettySize=auto;html=1;exitX=0.5;exitY=0;exitDx=0;exitDy=0;endArrow=oval;endFill=0;" edge="1" parent="1" source="BDpeUFrxrpk7QIUAc2P_-33">
          <mxGeometry relative="1" as="geometry">
            <mxPoint x="500" y="160" as="targetPoint" />
            <mxPoint x="520" y="280" as="sourcePoint" />
            <Array as="points">
              <mxPoint x="500" y="250" />
            </Array>
          </mxGeometry>
        </mxCell>
        <mxCell id="BDpeUFrxrpk7QIUAc2P_-38" style="edgeStyle=orthogonalEdgeStyle;rounded=0;orthogonalLoop=1;jettySize=auto;html=1;endArrow=oval;endFill=0;" edge="1" parent="1">
          <mxGeometry relative="1" as="geometry">
            <mxPoint x="510" y="170" as="targetPoint" />
            <mxPoint x="530" y="250" as="sourcePoint" />
            <Array as="points">
              <mxPoint x="530" y="250" />
              <mxPoint x="510" y="250" />
            </Array>
          </mxGeometry>
        </mxCell>
        <mxCell id="BDpeUFrxrpk7QIUAc2P_-39" value="Nombre" style="text;html=1;align=center;verticalAlign=middle;resizable=0;points=[];autosize=1;strokeColor=none;fillColor=none;fontSize=8;" vertex="1" parent="1">
          <mxGeometry x="466" y="118" width="50" height="20" as="geometry" />
        </mxCell>
        <mxCell id="BDpeUFrxrpk7QIUAc2P_-40" value="Tipo" style="text;html=1;align=center;verticalAlign=middle;resizable=0;points=[];autosize=1;strokeColor=none;fillColor=none;fontSize=8;" vertex="1" parent="1">
          <mxGeometry x="473" y="128" width="40" height="20" as="geometry" />
        </mxCell>
        <mxCell id="BDpeUFrxrpk7QIUAc2P_-42" value="&lt;div&gt;Descripcion_y_imagen&lt;/div&gt;" style="text;html=1;align=center;verticalAlign=middle;resizable=0;points=[];autosize=1;strokeColor=none;fillColor=none;fontSize=8;" vertex="1" parent="1">
          <mxGeometry x="486" y="139" width="100" height="20" as="geometry" />
        </mxCell>
        <mxCell id="BDpeUFrxrpk7QIUAc2P_-43" value="Precio" style="text;html=1;align=center;verticalAlign=middle;resizable=0;points=[];autosize=1;strokeColor=none;fillColor=none;fontSize=8;" vertex="1" parent="1">
          <mxGeometry x="495" y="149" width="50" height="20" as="geometry" />
        </mxCell>
        <mxCell id="BDpeUFrxrpk7QIUAc2P_-44" value="Rareza" style="text;html=1;align=center;verticalAlign=middle;resizable=0;points=[];autosize=1;strokeColor=none;fillColor=none;fontSize=8;" vertex="1" parent="1">
          <mxGeometry x="507" y="159" width="50" height="20" as="geometry" />
        </mxCell>
        <mxCell id="BDpeUFrxrpk7QIUAc2P_-46" style="edgeStyle=orthogonalEdgeStyle;rounded=0;orthogonalLoop=1;jettySize=auto;html=1;exitX=0;exitY=0;exitDx=0;exitDy=0;endArrow=oval;endFill=1;" edge="1" parent="1" source="BDpeUFrxrpk7QIUAc2P_-48">
          <mxGeometry relative="1" as="geometry">
            <mxPoint x="163" y="355" as="targetPoint" />
          </mxGeometry>
        </mxCell>
        <mxCell id="BDpeUFrxrpk7QIUAc2P_-47" style="edgeStyle=orthogonalEdgeStyle;rounded=0;orthogonalLoop=1;jettySize=auto;html=1;exitX=0.25;exitY=0;exitDx=0;exitDy=0;endArrow=oval;endFill=0;" edge="1" parent="1" source="BDpeUFrxrpk7QIUAc2P_-48">
          <mxGeometry relative="1" as="geometry">
            <mxPoint x="173" y="365" as="targetPoint" />
            <Array as="points">
              <mxPoint x="173" y="485" />
            </Array>
          </mxGeometry>
        </mxCell>
        <mxCell id="BDpeUFrxrpk7QIUAc2P_-62" style="edgeStyle=orthogonalEdgeStyle;rounded=0;orthogonalLoop=1;jettySize=auto;html=1;exitX=0.75;exitY=0;exitDx=0;exitDy=0;endArrow=oval;endFill=0;" edge="1" parent="1" source="BDpeUFrxrpk7QIUAc2P_-48">
          <mxGeometry relative="1" as="geometry">
            <mxPoint x="230" y="430" as="targetPoint" />
            <Array as="points">
              <mxPoint x="230" y="485" />
              <mxPoint x="230" y="430" />
            </Array>
          </mxGeometry>
        </mxCell>
        <mxCell id="BDpeUFrxrpk7QIUAc2P_-48" value="Mobs" style="rounded=0;whiteSpace=wrap;html=1;" vertex="1" parent="1">
          <mxGeometry x="163" y="485" width="120" height="60" as="geometry" />
        </mxCell>
        <mxCell id="BDpeUFrxrpk7QIUAc2P_-49" value="ID" style="text;html=1;align=center;verticalAlign=middle;resizable=0;points=[];autosize=1;strokeColor=none;fillColor=none;" vertex="1" parent="1">
          <mxGeometry x="143" y="330" width="40" height="30" as="geometry" />
        </mxCell>
        <mxCell id="BDpeUFrxrpk7QIUAc2P_-50" style="edgeStyle=orthogonalEdgeStyle;rounded=0;orthogonalLoop=1;jettySize=auto;html=1;exitX=0.25;exitY=0;exitDx=0;exitDy=0;endArrow=oval;endFill=0;" edge="1" parent="1">
          <mxGeometry relative="1" as="geometry">
            <mxPoint x="183" y="375" as="targetPoint" />
            <mxPoint x="203" y="485" as="sourcePoint" />
            <Array as="points">
              <mxPoint x="183" y="485" />
            </Array>
          </mxGeometry>
        </mxCell>
        <mxCell id="BDpeUFrxrpk7QIUAc2P_-51" style="edgeStyle=orthogonalEdgeStyle;rounded=0;orthogonalLoop=1;jettySize=auto;html=1;endArrow=oval;endFill=0;" edge="1" parent="1">
          <mxGeometry relative="1" as="geometry">
            <mxPoint x="193" y="385" as="targetPoint" />
            <mxPoint x="193" y="485" as="sourcePoint" />
            <Array as="points">
              <mxPoint x="213" y="485" />
              <mxPoint x="193" y="485" />
            </Array>
          </mxGeometry>
        </mxCell>
        <mxCell id="BDpeUFrxrpk7QIUAc2P_-52" style="edgeStyle=orthogonalEdgeStyle;rounded=0;orthogonalLoop=1;jettySize=auto;html=1;exitX=0.5;exitY=0;exitDx=0;exitDy=0;endArrow=oval;endFill=0;" edge="1" parent="1" source="BDpeUFrxrpk7QIUAc2P_-48">
          <mxGeometry relative="1" as="geometry">
            <mxPoint x="203" y="395" as="targetPoint" />
            <mxPoint x="223" y="515" as="sourcePoint" />
            <Array as="points">
              <mxPoint x="203" y="485" />
            </Array>
          </mxGeometry>
        </mxCell>
        <mxCell id="BDpeUFrxrpk7QIUAc2P_-53" style="edgeStyle=orthogonalEdgeStyle;rounded=0;orthogonalLoop=1;jettySize=auto;html=1;endArrow=oval;endFill=0;" edge="1" parent="1">
          <mxGeometry relative="1" as="geometry">
            <mxPoint x="213" y="405" as="targetPoint" />
            <mxPoint x="233" y="485" as="sourcePoint" />
            <Array as="points">
              <mxPoint x="233" y="485" />
              <mxPoint x="213" y="485" />
            </Array>
          </mxGeometry>
        </mxCell>
        <mxCell id="BDpeUFrxrpk7QIUAc2P_-54" value="Nombre" style="text;html=1;align=center;verticalAlign=middle;resizable=0;points=[];autosize=1;strokeColor=none;fillColor=none;fontSize=8;" vertex="1" parent="1">
          <mxGeometry x="168" y="352" width="50" height="20" as="geometry" />
        </mxCell>
        <mxCell id="BDpeUFrxrpk7QIUAc2P_-55" value="Tipo" style="text;html=1;align=center;verticalAlign=middle;resizable=0;points=[];autosize=1;strokeColor=none;fillColor=none;fontSize=8;" vertex="1" parent="1">
          <mxGeometry x="181" y="363" width="40" height="20" as="geometry" />
        </mxCell>
        <mxCell id="BDpeUFrxrpk7QIUAc2P_-56" value="Tiempo_de_reapariciÃ³n" style="text;html=1;align=center;verticalAlign=middle;resizable=0;points=[];autosize=1;strokeColor=none;fillColor=none;fontSize=8;" vertex="1" parent="1">
          <mxGeometry x="215" y="404" width="110" height="20" as="geometry" />
        </mxCell>
        <mxCell id="BDpeUFrxrpk7QIUAc2P_-57" value="Puntos_de_ataque" style="text;html=1;align=center;verticalAlign=middle;resizable=0;points=[];autosize=1;strokeColor=none;fillColor=none;fontSize=8;" vertex="1" parent="1">
          <mxGeometry x="207" y="395" width="90" height="20" as="geometry" />
        </mxCell>
        <mxCell id="BDpeUFrxrpk7QIUAc2P_-58" value="Puntos_de_vida" style="text;html=1;align=center;verticalAlign=middle;resizable=0;points=[];autosize=1;strokeColor=none;fillColor=none;fontSize=8;" vertex="1" parent="1">
          <mxGeometry x="199" y="384" width="80" height="20" as="geometry" />
        </mxCell>
        <mxCell id="BDpeUFrxrpk7QIUAc2P_-59" value="Nivel" style="text;html=1;align=center;verticalAlign=middle;resizable=0;points=[];autosize=1;strokeColor=none;fillColor=none;fontSize=8;" vertex="1" parent="1">
          <mxGeometry x="190" y="374" width="40" height="20" as="geometry" />
        </mxCell>
        <mxCell id="BDpeUFrxrpk7QIUAc2P_-60" style="edgeStyle=orthogonalEdgeStyle;rounded=0;orthogonalLoop=1;jettySize=auto;html=1;endArrow=oval;endFill=0;exitX=0.5;exitY=0;exitDx=0;exitDy=0;" edge="1" parent="1" source="BDpeUFrxrpk7QIUAc2P_-48">
          <mxGeometry relative="1" as="geometry">
            <mxPoint x="223" y="415" as="targetPoint" />
            <mxPoint x="243" y="495" as="sourcePoint" />
            <Array as="points">
              <mxPoint x="223" y="485" />
            </Array>
          </mxGeometry>
        </mxCell>
        <mxCell id="BDpeUFrxrpk7QIUAc2P_-63" style="edgeStyle=orthogonalEdgeStyle;rounded=0;orthogonalLoop=1;jettySize=auto;html=1;exitX=0.645;exitY=0.01;exitDx=0;exitDy=0;endArrow=oval;endFill=0;exitPerimeter=0;" edge="1" parent="1">
          <mxGeometry relative="1" as="geometry">
            <mxPoint x="239" y="440" as="targetPoint" />
            <mxPoint x="239.39999999999998" y="485.6" as="sourcePoint" />
            <Array as="points">
              <mxPoint x="239" y="480" />
              <mxPoint x="239" y="480" />
            </Array>
          </mxGeometry>
        </mxCell>
        <mxCell id="BDpeUFrxrpk7QIUAc2P_-65" value="Inmortalidad" style="text;html=1;align=center;verticalAlign=middle;resizable=0;points=[];autosize=1;strokeColor=none;fillColor=none;fontSize=8;" vertex="1" parent="1">
          <mxGeometry x="223" y="419" width="70" height="20" as="geometry" />
        </mxCell>
        <mxCell id="BDpeUFrxrpk7QIUAc2P_-66" value="Recompensa_oro" style="text;html=1;align=center;verticalAlign=middle;resizable=0;points=[];autosize=1;strokeColor=none;fillColor=none;fontSize=8;" vertex="1" parent="1">
          <mxGeometry x="232" y="430" width="90" height="20" as="geometry" />
        </mxCell>
        <mxCell id="BDpeUFrxrpk7QIUAc2P_-67" style="edgeStyle=orthogonalEdgeStyle;rounded=0;orthogonalLoop=1;jettySize=auto;html=1;exitX=0;exitY=0;exitDx=0;exitDy=0;endArrow=oval;endFill=1;" edge="1" parent="1" source="BDpeUFrxrpk7QIUAc2P_-70">
          <mxGeometry relative="1" as="geometry">
            <mxPoint x="325" y="355" as="targetPoint" />
          </mxGeometry>
        </mxCell>
        <mxCell id="BDpeUFrxrpk7QIUAc2P_-68" style="edgeStyle=orthogonalEdgeStyle;rounded=0;orthogonalLoop=1;jettySize=auto;html=1;exitX=0.25;exitY=0;exitDx=0;exitDy=0;endArrow=oval;endFill=0;" edge="1" parent="1" source="BDpeUFrxrpk7QIUAc2P_-70">
          <mxGeometry relative="1" as="geometry">
            <mxPoint x="335" y="365" as="targetPoint" />
            <Array as="points">
              <mxPoint x="335" y="485" />
            </Array>
          </mxGeometry>
        </mxCell>
        <mxCell id="BDpeUFrxrpk7QIUAc2P_-70" value="Regiones" style="rounded=0;whiteSpace=wrap;html=1;" vertex="1" parent="1">
          <mxGeometry x="325" y="485" width="120" height="60" as="geometry" />
        </mxCell>
        <mxCell id="BDpeUFrxrpk7QIUAc2P_-71" style="edgeStyle=orthogonalEdgeStyle;rounded=0;orthogonalLoop=1;jettySize=auto;html=1;exitX=0.25;exitY=0;exitDx=0;exitDy=0;endArrow=oval;endFill=0;" edge="1" parent="1">
          <mxGeometry relative="1" as="geometry">
            <mxPoint x="345" y="375" as="targetPoint" />
            <mxPoint x="365" y="485" as="sourcePoint" />
            <Array as="points">
              <mxPoint x="345" y="485" />
            </Array>
          </mxGeometry>
        </mxCell>
        <mxCell id="BDpeUFrxrpk7QIUAc2P_-75" value="Descripcion" style="text;html=1;align=center;verticalAlign=middle;resizable=0;points=[];autosize=1;strokeColor=none;fillColor=none;fontSize=8;" vertex="1" parent="1">
          <mxGeometry x="327" y="354" width="70" height="20" as="geometry" />
        </mxCell>
        <mxCell id="BDpeUFrxrpk7QIUAc2P_-76" value="Nivel_recomendado" style="text;html=1;align=center;verticalAlign=middle;resizable=0;points=[];autosize=1;strokeColor=none;fillColor=none;fontSize=8;" vertex="1" parent="1">
          <mxGeometry x="341" y="365" width="90" height="20" as="geometry" />
        </mxCell>
        <mxCell id="BDpeUFrxrpk7QIUAc2P_-85" value="Nombre" style="text;html=1;align=center;verticalAlign=middle;resizable=0;points=[];autosize=1;strokeColor=none;fillColor=none;" vertex="1" parent="1">
          <mxGeometry x="295" y="328" width="70" height="30" as="geometry" />
        </mxCell>
        <mxCell id="BDpeUFrxrpk7QIUAc2P_-86" style="edgeStyle=orthogonalEdgeStyle;rounded=0;orthogonalLoop=1;jettySize=auto;html=1;exitX=0;exitY=0;exitDx=0;exitDy=0;endArrow=oval;endFill=1;" edge="1" parent="1" source="BDpeUFrxrpk7QIUAc2P_-88">
          <mxGeometry relative="1" as="geometry">
            <mxPoint x="475" y="355" as="targetPoint" />
          </mxGeometry>
        </mxCell>
        <mxCell id="BDpeUFrxrpk7QIUAc2P_-87" style="edgeStyle=orthogonalEdgeStyle;rounded=0;orthogonalLoop=1;jettySize=auto;html=1;exitX=0.25;exitY=0;exitDx=0;exitDy=0;endArrow=oval;endFill=0;" edge="1" parent="1" source="BDpeUFrxrpk7QIUAc2P_-88">
          <mxGeometry relative="1" as="geometry">
            <mxPoint x="485" y="365" as="targetPoint" />
            <Array as="points">
              <mxPoint x="485" y="485" />
            </Array>
          </mxGeometry>
        </mxCell>
        <mxCell id="BDpeUFrxrpk7QIUAc2P_-88" value="Lugares" style="rounded=0;whiteSpace=wrap;html=1;" vertex="1" parent="1">
          <mxGeometry x="475" y="485" width="120" height="60" as="geometry" />
        </mxCell>
        <mxCell id="BDpeUFrxrpk7QIUAc2P_-90" value="Descripcion" style="text;html=1;align=center;verticalAlign=middle;resizable=0;points=[];autosize=1;strokeColor=none;fillColor=none;fontSize=8;" vertex="1" parent="1">
          <mxGeometry x="478" y="354" width="70" height="20" as="geometry" />
        </mxCell>
        <mxCell id="BDpeUFrxrpk7QIUAc2P_-92" value="Nombre" style="text;html=1;align=center;verticalAlign=middle;resizable=0;points=[];autosize=1;strokeColor=none;fillColor=none;" vertex="1" parent="1">
          <mxGeometry x="445" y="328" width="70" height="30" as="geometry" />
        </mxCell>
      </root>
    </mxGraphModel>
  </diagram>
</mxfile>
